<svg xmlns="http://www.w3.org/2000/svg" width="301.457" height="235.878" viewBox="0 0 301.457 235.878">
  <g id="Group_950" data-name="Group 950" transform="translate(0.004 -0.003)">
    <ellipse id="Ellipse_255" data-name="Ellipse 255" cx="12.007" cy="2.031" rx="12.007" ry="2.031" transform="translate(236.759 213.894)" fill="#85bb65" opacity="0.6"/>
    <ellipse id="Ellipse_250" data-name="Ellipse 250" cx="52.585" cy="9.962" rx="52.585" ry="9.962" transform="translate(53.158 211.389)" fill="#e8ede4" opacity="0.5"/>
    <path id="Path_524" data-name="Path 524" d="M270.375,88.3c-19.326-.669-37.732-6.91-55.308-13.736s-34.985-14.387-53.848-18c-12.132-2.326-26.009-2.658-35.782,3.84-9.409,6.271-12.449,17.065-14.082,27.09-1.23,7.543-1.953,15.483,1.415,22.545,2.341,4.9,6.492,9.024,9.364,13.721,9.994,16.34,2.929,36.49-7.9,52.444-5.076,7.483-10.974,14.632-14.895,22.59s-5.733,17.107-2.3,25.247c3.4,8.062,11.5,14.106,20.275,18.361,17.824,8.645,38.819,11.117,59.306,12.521,45.337,3.1,90.914,1.759,136.371.412,16.823-.5,33.719-1,50.267-3.6,9.191-1.445,18.678-3.739,25.352-9.275,8.468-7.026,10.568-18.923,4.891-27.732-9.52-14.781-35.833-18.451-42.495-34.31-3.661-8.731.1-18.454,5.423-26.549,11.419-17.37,30.556-32.608,31.563-52.459.693-13.634-8.507-27.29-22.733-33.743-14.909-6.763-35.588-5.912-46.583,5.282C307.345,84.457,287.44,88.891,270.375,88.3Z" transform="translate(-95.23 -55.03)" fill="#85bb65" opacity="0.1"/>
    <path id="Path_526" data-name="Path 526" d="M504.16,438.369c-2.986,4.273-13.721,2.01-13.721,2.01l-8.319-7.785L481,431.539l1.878-3.989s.6.164,1.621.457C489.878,429.569,506.68,434.776,504.16,438.369Z" transform="translate(-365.809 -316.311)" fill="#efb7b9"/>
    <path id="Path_527" data-name="Path 527" d="M484.494,428.007a17.519,17.519,0,0,1-2.374,4.587L481,431.539l1.878-3.989S483.481,427.714,484.494,428.007Z" transform="translate(-365.809 -316.311)" opacity="0.1"/>
    <path id="Path_528" data-name="Path 528" d="M379.99,278.125s-7.668,3.4-7.292,11.753a137.7,137.7,0,0,0,1.756,16.053s-1.568,12.568,4.96,15.808,12.568,5.9,12.568,5.9,10.212,1.1,11.481,1.553,5.235-6.486,4.5-7.567-10.1-3.347-11.3-5.151a9.971,9.971,0,0,0-3.956-2.917s-2.852-1.726-3.046-3.285a7.09,7.09,0,0,1,.749-3.4c.191-.684.675-7.286.675-7.286S394.309,276.086,379.99,278.125Z" transform="translate(-289.838 -211.417)" fill="#dce6f2"/>
    <path id="Path_529" data-name="Path 529" d="M391.619,370.39s-10.52,1.762-9.5,5.444A22.3,22.3,0,0,1,391.619,370.39Z" transform="translate(-296.405 -276.219)" opacity="0.1"/>
    <path id="Path_530" data-name="Path 530" d="M403.1,375.38s-5.784,4.721-4.652,4.963S403.1,375.38,403.1,375.38Z" transform="translate(-307.803 -279.719)" opacity="0.1"/>
    <path id="Path_531" data-name="Path 531" d="M421.55,380.89s-1.55,3.174-.6,2.959S421.55,380.89,421.55,380.89Z" transform="translate(-323.476 -283.584)" opacity="0.1"/>
    <path id="Path_532" data-name="Path 532" d="M409.816,324.236l-.639-.182a1.826,1.826,0,0,0,.084-1.3c-.732-1.081-10.1-3.344-11.29-5.151a9.918,9.918,0,0,0-3.957-2.917s-2.852-1.726-3.046-3.285a7.091,7.091,0,0,1,.75-3.4c.191-.684.675-7.289.675-7.289s3.21-23.5-11.108-21.458c0,0-7.668,3.4-7.295,11.756a137.324,137.324,0,0,0,1.759,16.053s-1.568,12.568,4.96,15.808,12.568,5.9,12.568,5.9,10.209,1.1,11.481,1.553c.481.173,1.35-.72,2.2-1.947l.484.451,8.319,7.782s10.735,2.266,13.721-2.007C432.005,331,415.206,325.8,409.816,324.236Z" transform="translate(-290.743 -212.203)" opacity="0.1"/>
    <path id="Path_537" data-name="Path 537" d="M313.614,201l4.554,5.476L317.573,212l-5.5-8.615Z" transform="translate(-218.887 -140.978)" fill="#dce6f2"/>
    <path id="Path_538" data-name="Path 538" d="M318.165,206.476l-.558,5.2-.036.328-4.966-7.776-.535-.839.155-.242L313.611,201l.308.37Z" transform="translate(-218.887 -140.978)" opacity="0.1"/>
    <path id="Path_539" data-name="Path 539" d="M391.323,212.3c-1.541.442-3.013,1.959-4.294,3.8a32.434,32.434,0,0,0-2.317,3.983c-.421.842-.791,1.651-1.1,2.356l-.215.5c-.52,1.227-.809,2.048-.809,2.048s-11.795-8.869-9.929-9.466c.627-.2,1.451-1.544,2.266-3.237l.1-.215c.517-1.087,1.024-2.3,1.475-3.44.923-2.344,1.607-4.381,1.607-4.381S396.026,210.954,391.323,212.3Z" transform="translate(-289.68 -159.69)" fill="#efb7b9"/>
    <path id="Path_541" data-name="Path 541" d="M390.066,746.418c-2.413,1.1-7.868,0-7.868,0l-2.3-.143c-2.986-.191-7.985-.514-9.753-.657-2.58-.212-1.947-1.269-1.947-1.269v-6.387l12.518-3.171s4.948,1.693,6.3,3.171c1.287,1.409,2.039.325,4.336.731.113.021.233.045.358.075,2.18.5,3.362.7,4.061,2.5a8.383,8.383,0,0,1,.337,1.165C396.758,745.343,392.476,745.322,390.066,746.418Z" transform="translate(-286.643 -531.807)" fill="#e8505b"/>
    <path id="Path_542" data-name="Path 542" d="M395.775,750.437a9.355,9.355,0,0,1-1.409.723c-1.642.749-3.2,1.663-4.864,2.371a11.378,11.378,0,0,1-5.247,1.078,7.826,7.826,0,0,0-2.8-.03,6.467,6.467,0,0,0-1.556.863c-2.986-.191-7.985-.514-9.753-.657-2.58-.212-1.947-1.269-1.947-1.269v-.747c.093,0,.2-.027.317-.036a5.641,5.641,0,0,1,1.822.272c1.3.352,2.586.7,3.882,1.045a3.067,3.067,0,0,1,1.493-1.905,4.76,4.76,0,0,1,2.407-.552c2.01.027,3.912.979,5.918,1.075a3.262,3.262,0,0,0,1.639-.275c.275-.137.517-.337.785-.49a5.738,5.738,0,0,1,1.353-.457,29.769,29.769,0,0,0,3.867-1.248c.358-.14.776-.394.729-.776-.063-.508-.86-.567-1.069-1.033a.6.6,0,0,1,.024-.529c.113.021.233.045.358.075C393.894,748.433,395.076,748.63,395.775,750.437Z" transform="translate(-286.643 -540.974)" opacity="0.1"/>
    <path id="Path_543" data-name="Path 543" d="M372.435,788.385c-2.837,1.3-9.257,0-9.257,0l-2.7-.158c-3.5-.224-9.394-.6-11.475-.773-3.037-.251-2.29-1.493-2.29-1.493v-7.528l14.73-3.733s5.823,1.992,7.417,3.733c1.514,1.657,2.389.382,5.1.86.134.024.275.054.421.087,2.565.6,3.957.821,4.778,2.947a9.581,9.581,0,0,1,.4,1.371C380.3,787.119,375.271,787.092,372.435,788.385Z" transform="translate(-271.562 -559.799)" fill="#e8505b"/>
    <path id="Path_544" data-name="Path 544" d="M379.153,793.149A11.115,11.115,0,0,1,377.5,794c-1.932.881-3.771,1.956-5.724,2.789a13.418,13.418,0,0,1-6.175,1.269,9.013,9.013,0,0,0-3.285-.036,7.617,7.617,0,0,0-1.836,1.027c-3.5-.224-9.394-.6-11.475-.773-3.037-.251-2.29-1.493-2.29-1.493V795.9q.185-.03.373-.042a6.553,6.553,0,0,1,2.144.319l4.566,1.23a3.613,3.613,0,0,1,1.771-2.242,5.573,5.573,0,0,1,2.834-.651c2.365.033,4.6,1.153,6.964,1.266a3.855,3.855,0,0,0,1.923-.32c.326-.164.6-.4.926-.576a6.5,6.5,0,0,1,1.592-.537,35.732,35.732,0,0,0,4.527-1.469c.421-.167.914-.466.857-.914-.075-.6-1.012-.669-1.26-1.218a.72.72,0,0,1,.03-.621c.134.024.275.054.421.087C376.94,790.79,378.332,791.023,379.153,793.149Z" transform="translate(-271.562 -570.622)" opacity="0.1"/>
    <path id="Path_545" data-name="Path 545" d="M388.565,647.54l-.8,18.762s-1.194,3.831-.546,4.927,1.741,2.189,1.344,2.837-5.175,7.653-6.719,4.966S378.78,664.7,378.78,664.7l1.424-14.384Z" transform="translate(-294.113 -470.61)" fill="#444053"/>
    <path id="Path_546" data-name="Path 546" d="M412.609,491l2.216,2.962v25.764s.648,6.868,0,8.286-3.933,4.255-3.933,4.255l-2.762-14.184.6-15.005Z" transform="translate(-314.699 -360.814)" fill="#444053"/>
    <path id="Path_547" data-name="Path 547" d="M388.565,647.54l-.8,18.762s-1.194,3.831-.546,4.927,1.741,2.189,1.344,2.837-5.175,7.653-6.719,4.966S378.78,664.7,378.78,664.7l1.424-14.384Z" transform="translate(-294.113 -470.61)" opacity="0.1"/>
    <path id="Path_548" data-name="Path 548" d="M412.609,491l2.216,2.962v25.764s.648,6.868,0,8.286-3.933,4.255-3.933,4.255l-2.762-14.184.6-15.005Z" transform="translate(-314.699 -360.814)" opacity="0.1"/>
    <path id="Path_549" data-name="Path 549" d="M357.921,437.367V451.3l-2.487,10.848s-.8,26.179-.1,29.362-2.389,6.172-2.389,6.172-1.792.2-1.792,1.592-2.986,5.375-2.986,5.375l.1,7.764s1.3,14.533-.7,17.319.7,3.186.7,3.186c-2.487,8.161-14.432,6.271-15.51,5.375s0-18.514,0-18.514,2.67-26.875,4.76-28.069.1-2.687.8-4.479-.7-6.668-.7-6.668-.6-5.775-2.09-8.561-1.3-10.451-1.3-10.451-4.181-5.575-5.423-7.764-2.042-7.862-1.744-12.144c.2-2.894,1.723-7.107,2.687-9.532.463-1.162.8-1.914.8-1.914l.284.075,16.31,4.27Z" transform="translate(-257.795 -318.169)" fill="#444053"/>
    <path id="Path_550" data-name="Path 550" d="M400.813,212.248c-1.541.442-3.013,1.959-4.294,3.8h-.334a10.666,10.666,0,0,1-9.257-5.354,10.5,10.5,0,0,1-.938-2.135c.923-2.344,1.607-4.381,1.607-4.381S405.516,210.9,400.813,212.248Z" transform="translate(-299.17 -159.64)" opacity="0.1"/>
    <path id="Path_551" data-name="Path 551" d="M404.659,180.57A10.139,10.139,0,1,1,385.69,175.6a9.906,9.906,0,0,1,1.072-1.549A10.26,10.26,0,0,1,389.094,172a10.139,10.139,0,0,1,15.551,7.822C404.65,180.077,404.659,180.323,404.659,180.57Z" transform="translate(-298.04 -135.964)" fill="#efb7b9"/>
    <path id="Path_552" data-name="Path 552" d="M388.4,248.757l-.036.328-4.966-7.764c-.52,1.227-.809,2.048-.809,2.048s-11.795-8.881-9.929-9.478c.627-.2,1.451-1.544,2.266-3.237l.1-.215c.866,2.58,5.9,7.737,7.991,9.8.242.239.442.436.6.579l.319.3.167.167C384.864,242.074,388.077,245.538,388.4,248.757Z" transform="translate(-289.68 -178.059)" opacity="0.1"/>
    <path id="Path_553" data-name="Path 553" d="M355.658,274.9l-.543,17.489-.1,3.115s-6.438-.6-12.446-1.254c-4.837-.529-9.4-1.1-10.1-1.433a19.01,19.01,0,0,0-4.33-.953c-1.171-.158-2.09-.242-2.09-.242s-.343.1-.872.2c-1.153.209-3.177.379-4.357-.645-1.508-1.311,2.455-6.074,3.443-7.217l.218-.248-.373-3.449-.97-8.943a54.562,54.562,0,0,0-1.493-7.913,14.6,14.6,0,0,1-.517-2.4,19.253,19.253,0,0,1,.5-7.543,16.449,16.449,0,0,0,.537-3.192c.149-2.762,8.585-13.437,10.675-14.408a4.432,4.432,0,0,0,2.138-2.132,4.079,4.079,0,0,0,.325-.929c.9-3.882,3.162-2.341,3.162-2.341.546,3.037,9.006,11.075,9.006,11.075l.167.167c.839.86,4.578,4.9,4.312,8.343a10.114,10.114,0,0,0,.564,3.774,63.826,63.826,0,0,1,2.941,16.722Z" transform="translate(-253.226 -177.855)" fill="#e8505b"/>
    <path id="Path_554" data-name="Path 554" d="M388.919,310.45s-2.09,5.076-3.658,5.9S389.666,318.079,388.919,310.45Z" transform="translate(-298.474 -234.177)" opacity="0.1"/>
    <path id="Path_555" data-name="Path 555" d="M392.158,342.2s-4.778.6-4.778,1.493S392.158,342.2,392.158,342.2Z" transform="translate(-300.145 -256.447)" opacity="0.1"/>
    <path id="Path_556" data-name="Path 556" d="M398.716,361.7s-6.943,14.781-8.884,15.229S398.716,361.7,398.716,361.7Z" transform="translate(-301.702 -270.124)" opacity="0.1"/>
    <path id="Path_557" data-name="Path 557" d="M380.673,243.644l-5.742,2.5L368,235.671a4.071,4.071,0,0,0,.326-.929c.9-3.882,3.162-2.341,3.162-2.341.546,3.037,9.006,11.075,9.006,11.075Z" transform="translate(-286.552 -179.223)" opacity="0.1"/>
    <path id="Path_558" data-name="Path 558" d="M381.673,241.644l-5.742,2.5L369,233.671a4.073,4.073,0,0,0,.325-.929c.9-3.882,3.162-2.341,3.162-2.341.546,3.037,9.006,11.075,9.006,11.075Z" transform="translate(-287.253 -177.82)" fill="#dce6f2"/>
    <path id="Path_559" data-name="Path 559" d="M362.307,338.764s-6.438-.6-12.446-1.254l10.78,2.822v3.285c-.472.427-.881.648-1.147.534-1.242-.523-11.38-2.165-11.38-2.165s-5.889-2.986-12.243-6.569a4.883,4.883,0,0,1-.448-.281,7.058,7.058,0,0,1-1.881-1.884,13.373,13.373,0,0,1-1.995-6.023,26.052,26.052,0,0,1-.155-3.7,30.305,30.305,0,0,1,.382-4.178,137.367,137.367,0,0,1-.9-16.125c.075-8.361,7.913-11.347,7.913-11.347,14.408-1.269,9.941,22.022,9.941,22.022s-.833,6.569-1.06,7.241a7.089,7.089,0,0,0-.932,3.359c.11,1.568,2.864,3.443,2.864,3.443a10.054,10.054,0,0,1,3.8,3.126c.806,1.377,6.044,3.243,9,4.575Z" transform="translate(-260.514 -221.119)" opacity="0.1"/>
    <path id="Path_560" data-name="Path 560" d="M404.609,171.214a3.38,3.38,0,0,1-.3,1.427,8.834,8.834,0,0,1-.531,1.063,4.9,4.9,0,0,1-1.308,1.624,6.691,6.691,0,0,1-2.389.83,3.457,3.457,0,0,0-2.159,1.224,4.28,4.28,0,0,0-.5,1.463,3.147,3.147,0,0,1-.6,1.415,1.173,1.173,0,0,1-1.4.334,1.412,1.412,0,0,1-.541-.7,9.98,9.98,0,0,1-.564-2.446,5.2,5.2,0,0,0-.839-2.344,2.1,2.1,0,0,0-2.2-.845,2.123,2.123,0,0,0-1.194,1.159,6.641,6.641,0,0,0-.451,1.648q-.555,3.04-1.311,6.044a.555.555,0,0,1-.1.227.43.43,0,0,1-.3.125c-.669.09-1.311-.379-1.986-.328a1.143,1.143,0,0,0-.206.033,10.669,10.669,0,0,1,1.078-12.183l.054-.015a3.22,3.22,0,0,0,1.194-.753,12.612,12.612,0,0,0,1.194-1.383l.239-.3a13.621,13.621,0,0,1,2.329-2.213,2.389,2.389,0,0,1,.794-.43,2.355,2.355,0,0,1,.753-.024,18.983,18.983,0,0,0,3.108.116,19.939,19.939,0,0,1,2.183-.221c1.89.054,3.5,1.389,4.7,2.852A4.417,4.417,0,0,1,404.609,171.214Z" transform="translate(-297.991 -132.7)" opacity="0.1"/>
    <path id="Path_561" data-name="Path 561" d="M376.159,172.246c-.415.681-.23,1.507-.511,2.253-.412,1.084.284,2.434-.355,3.4-.212.325-.561.567-.681.941-.2.63.352,1.3.209,1.95s-1,1.194-.77,1.827a1.194,1.194,0,0,0,.657.6,2.568,2.568,0,0,0,1.493.331c.815-.134,1.421-.935,2.249-.994.672-.048,1.314.418,1.983.331a.448.448,0,0,0,.3-.128.515.515,0,0,0,.1-.227q.752-3,1.314-6.044a6.509,6.509,0,0,1,.448-1.648,2.141,2.141,0,0,1,1.194-1.159,2.106,2.106,0,0,1,2.2.845,5.172,5.172,0,0,1,.842,2.344,10.108,10.108,0,0,0,.561,2.446,1.428,1.428,0,0,0,.543.7,1.169,1.169,0,0,0,1.394-.334,3.114,3.114,0,0,0,.6-1.418,4.265,4.265,0,0,1,.5-1.46,3.465,3.465,0,0,1,2.159-1.224,6.756,6.756,0,0,0,2.389-.833,4.914,4.914,0,0,0,1.308-1.621,4.773,4.773,0,0,0,.818-2.493,4.577,4.577,0,0,0-1.224-2.583,12.176,12.176,0,0,0-4.262-3.47,7.04,7.04,0,0,0-3.442-.7c-1.151-.12-1.367.126-2.4,0a11.986,11.986,0,0,0-1.671,0c-.29.089-1.011.319-2.311.768a5.123,5.123,0,0,0-2.654,1.626,6.1,6.1,0,0,1-.807,1.038,4.884,4.884,0,0,0-.91,1.191,8.125,8.125,0,0,0-.5,1.963A4.6,4.6,0,0,1,376.159,172.246Z" transform="translate(-290.769 -132.414)" fill="#263238"/>
    <g id="Group_949" data-name="Group 949" transform="translate(83.229 37.916)" opacity="0.1">
      <path id="Path_563" data-name="Path 563" d="M376.122,211.477a2.489,2.489,0,0,0-.173-1.147c0,.03-.027.06-.036.09a2.223,2.223,0,0,0,.155,1.23A.9.9,0,0,0,376.122,211.477Z" transform="translate(-375.299 -201.87)"/>
      <path id="Path_564" data-name="Path 564" d="M379.057,197.8a6.633,6.633,0,0,0,.024,1.239A6.661,6.661,0,0,0,379.057,197.8Z" transform="translate(-377.523 -193.082)"/>
      <path id="Path_565" data-name="Path 565" d="M396.236,183.926a4.9,4.9,0,0,1-1.308,1.624,6.671,6.671,0,0,1-2.389.83,3.449,3.449,0,0,0-2.159,1.224,4.3,4.3,0,0,0-.5,1.463,3.126,3.126,0,0,1-.6,1.418,1.165,1.165,0,0,1-1.395.334,1.428,1.428,0,0,1-.543-.7,9.943,9.943,0,0,1-.561-2.446,5.159,5.159,0,0,0-.842-2.344,2.1,2.1,0,0,0-2.2-.845,2.132,2.132,0,0,0-1.194,1.159,6.509,6.509,0,0,0-.448,1.648q-.558,3.043-1.314,6.044a.517.517,0,0,1-.1.227.448.448,0,0,1-.3.128c-.669.087-1.311-.379-1.983-.331-.827.06-1.433.86-2.249.991a2.523,2.523,0,0,1-1.493-.331,1.6,1.6,0,0,1-.546-.388.806.806,0,0,0-.11.7,1.165,1.165,0,0,0,.657.6,2.523,2.523,0,0,0,1.493.331c.815-.131,1.421-.932,2.249-.991.672-.048,1.314.418,1.983.331a.448.448,0,0,0,.3-.128.517.517,0,0,0,.1-.227q.752-2.986,1.314-6.044a6.51,6.51,0,0,1,.448-1.648,2.132,2.132,0,0,1,1.194-1.159,2.1,2.1,0,0,1,2.2.845,5.172,5.172,0,0,1,.842,2.344,10.115,10.115,0,0,0,.561,2.446,1.428,1.428,0,0,0,.543.7,1.17,1.17,0,0,0,1.394-.334,3.126,3.126,0,0,0,.6-1.418,4.3,4.3,0,0,1,.5-1.463,3.478,3.478,0,0,1,2.159-1.224,6.81,6.81,0,0,0,2.389-.83,4.9,4.9,0,0,0,1.308-1.624,4.756,4.756,0,0,0,.818-2.49,3.215,3.215,0,0,0-.036-.34A5.869,5.869,0,0,1,396.236,183.926Z" transform="translate(-373.964 -182)"/>
    </g>
    <path id="Path_566" data-name="Path 566" d="M404.967,175.13a9.063,9.063,0,0,1,1.142,3.809c-2.286-1.283-4.435-2.691-5.52-3.181-1.891-.854-8.96-.726-11.618-.646a8.955,8.955,0,0,1,.97-1.4,9.281,9.281,0,0,1,2.116-1.852,9.176,9.176,0,0,1,12.923,3.266Z" transform="translate(-301.26 -138.79)" opacity="0.1"/>
    <path id="Path_569" data-name="Path 569" d="M371.63,622.28s5,4.852,7.167,4.479C378.8,626.759,372.675,626.237,371.63,622.28Z" transform="translate(-289.098 -452.893)" opacity="0.1"/>
    <path id="Path_570" data-name="Path 570" d="M368.13,629.81s.448,2.5,1.642,2.252S368.13,629.81,368.13,629.81Z" transform="translate(-286.643 -458.174)" opacity="0.1"/>
    <path id="Path_571" data-name="Path 571" d="M380.194,769.53s-7.1,5.524-5.9,5.674S380.194,769.53,380.194,769.53Z" transform="translate(-290.869 -556.173)" opacity="0.1"/>
    <path id="Path_572" data-name="Path 572" d="M330.96,338.542l22.993-3.742v21.768l-21.846-1.144Z" transform="translate(-232.136 -234.824)" fill="#44891b"/>
    <path id="Path_574" data-name="Path 574" d="M407.96,334.8l27.573,2.063-1.526,18.944-26.047.762Z" transform="translate(-286.143 -234.824)" fill="#44891b"/>
    <path id="Path_576" data-name="Path 576" d="M416.437,312.55l-8.477,6.644,27.573,2.063,4.506-6.8Z" transform="translate(-286.143 -219.218)" fill="#85bb65"/>
    <path id="Path_577" data-name="Path 577" d="M303.08,317.11l20.7-2.52,10.618,6.035-22.993,3.742Z" transform="translate(-212.581 -220.649)" fill="#85bb65"/>
    <path id="Path_578" data-name="Path 578" d="M358.993,349.241V379l-10.771-1.1-4.685-.478-1.427-.149-4.682-.481-6.468-.663v-28.8l22.99,1.565Z" transform="translate(-232.136 -243.612)" fill="#519e23"/>
    <path id="Path_579" data-name="Path 579" d="M447.373,341.71v29.025l-8.633,1.657-4.2.806-9.7,1.863V345.3Z" transform="translate(-297.983 -239.671)" fill="#519e23"/>
    <path id="Path_581" data-name="Path 581" d="M303.08,353.595l8.325-6.265,28.033,1.911-4.127,6.952Z" transform="translate(-212.581 -243.612)" fill="#85bb65"/>
    <path id="Path_583" data-name="Path 583" d="M447.373,341.71,424.84,345.3l7.334,6.569,24.136-4.049Z" transform="translate(-297.983 -239.671)" fill="#85bb65"/>
    <path id="Path_585" data-name="Path 585" d="M461.528,429.457l-4.2.806v-6.2l3.933-.991Z" transform="translate(-320.771 -296.736)" fill="#fff" opacity="0.1"/>
    <path id="Path_586" data-name="Path 586" d="M377.765,435.96v4.1l-4.685-.478V435.96Z" transform="translate(-261.679 -305.777)" fill="#fff" opacity="0.1"/>
    <path id="Path_587" data-name="Path 587" d="M357.3,440.29v2.183l-4.682-.481v-1.7Z" transform="translate(-247.328 -308.814)" fill="#fff" opacity="0.1"/>
    <path id="Path_588" data-name="Path 588" d="M457.177,455.644c-3.21,4.106-13.811,1.269-13.811,1.269l-7.877-8.218-1.069-1.114,2.09-3.882s.6.2,1.595.543C443.384,446.089,459.879,452.189,457.177,455.644Z" transform="translate(-333.138 -327.638)" opacity="0.1"/>
    <path id="Path_589" data-name="Path 589" d="M456.177,453.644c-3.21,4.106-13.811,1.269-13.811,1.269l-7.877-8.218-1.069-1.114,2.09-3.882s.6.2,1.595.543C442.384,444.089,458.879,450.189,456.177,453.644Z" transform="translate(-332.437 -326.235)" fill="#efb7b9"/>
    <path id="Path_590" data-name="Path 590" d="M437.065,442.243a17.655,17.655,0,0,1-2.616,4.452l-1.069-1.114,2.09-3.882S436.07,441.9,437.065,442.243Z" transform="translate(-332.409 -326.235)" opacity="0.1"/>
    <path id="Path_591" data-name="Path 591" d="M339.791,287.88s-7.839,2.986-7.913,11.347a137.375,137.375,0,0,0,.9,16.125s-2.24,12.467,4.106,16.05,12.243,6.569,12.243,6.569,10.138,1.642,11.383,2.165,5.572-6.2,4.9-7.316-9.9-3.882-11-5.748a9.944,9.944,0,0,0-3.8-3.123s-2.753-1.878-2.864-3.446a7.055,7.055,0,0,1,.932-3.359c.23-.672,1.063-7.241,1.063-7.241S354.2,286.6,339.791,287.88Z" transform="translate(-261.216 -218.311)" fill="#e8505b"/>
    <path id="Path_592" data-name="Path 592" d="M347.3,380.7s-10.6,1.194-9.779,4.927A22.3,22.3,0,0,1,347.3,380.7Z" transform="translate(-265.144 -283.45)" opacity="0.1"/>
    <path id="Path_593" data-name="Path 593" d="M358.524,385.7s-6.017,4.4-4.912,4.7S358.524,385.7,358.524,385.7Z" transform="translate(-276.365 -286.957)" opacity="0.1"/>
    <path id="Path_594" data-name="Path 594" d="M376.928,391.7s-1.717,3.088-.746,2.926S376.928,391.7,376.928,391.7Z" transform="translate(-292.082 -291.166)" opacity="0.1"/>
    <path id="Path_595" data-name="Path 595" d="M725.208,167.385s-11.347-.684-10.021,7.277a1.942,1.942,0,0,0,1.009,2.045s.021-.6,1.164-.391a5.23,5.23,0,0,0,1.233.06,2.559,2.559,0,0,0,1.511-.624h0s3.192-1.317,4.434-6.537c0,0,.92-1.141.9-1.433l-1.917.821a3.435,3.435,0,0,1,.137,2.532s-.06-2.481-.43-2.425c-.075,0-.994.481-.994.481s1.126,2.407.275,4.16c0,0,.322-2.968-.627-3.986l-1.35.788s1.317,2.487.424,4.518c0,0,.23-3.114-.708-4.327l-1.224.953s1.239,2.455.484,4.139c0,0-.1-3.625-.749-3.9a7.386,7.386,0,0,0-1.23,1.332s.845,1.792.319,2.72c0,0-.322-2.416-.6-2.428a8.039,8.039,0,0,0-1.177,2.687,5.812,5.812,0,0,1,.917-2.849,3.2,3.2,0,0,0-1.63.845s.164-1.132,1.893-1.23a8.16,8.16,0,0,1,1.117-1.29,7,7,0,0,0-2.762.319s.917-1.066,3.079-.6l1.194-.985a10.3,10.3,0,0,0-3.225.033s1.1-.944,3.55-.257l1.314-.785a11.8,11.8,0,0,0-3.079-.266,4.723,4.723,0,0,1,3.464.054l.941-.421s-1.415-.278-1.827-.322-.436-.158-.436-.158a4.885,4.885,0,0,1,2.655.3A11.713,11.713,0,0,0,725.208,167.385Z" transform="translate(-529.991 -133.823)" fill="#85bb65"/>
    <path id="Path_596" data-name="Path 596" d="M840.668,300.726s-11.347-.684-10.021,7.277a1.942,1.942,0,0,0,1.009,2.045s.021-.6,1.168-.391a5.231,5.231,0,0,0,1.233.06,2.557,2.557,0,0,0,1.493-.621h0s3.2-1.32,4.437-6.539c0,0,.917-1.138.881-1.43l-1.917.818a3.446,3.446,0,0,1,.14,2.532s-.063-2.481-.43-2.425c-.075,0-1,.481-1,.481s1.129,2.41.278,4.16c0,0,.322-2.968-.63-3.986l-1.335.779s1.317,2.487.424,4.518c0,0,.23-3.115-.708-4.327l-1.221.956s1.236,2.452.484,4.136c0,0-.1-3.625-.75-3.9a7.492,7.492,0,0,0-1.233,1.332s.848,1.792.323,2.72c0,0-.323-2.416-.6-2.428a8.04,8.04,0,0,0-1.177,2.687,5.829,5.829,0,0,1,.92-2.849,3.214,3.214,0,0,0-1.633.845s.167-1.132,1.9-1.23a7.455,7.455,0,0,1,1.117-1.29,7,7,0,0,0-2.762.32s.917-1.066,3.076-.582l1.194-.985a10.307,10.307,0,0,0-3.225.033s1.1-.944,3.551-.257l1.314-.785a11.966,11.966,0,0,0-3.082-.266,4.733,4.733,0,0,1,3.467.054l.941-.421s-1.415-.278-1.831-.322-.436-.158-.436-.158a4.894,4.894,0,0,1,2.658.3A12.05,12.05,0,0,0,840.668,300.726Z" transform="translate(-610.974 -227.346)" fill="#85bb65" opacity="0.1"/>
    <path id="Path_597" data-name="Path 597" d="M615.419,250.728s2.613-11.075-5.461-11.114a1.94,1.94,0,0,0-2.186.645s.576.122.185,1.215a5.321,5.321,0,0,0-.269,1.194,2.566,2.566,0,0,0,.355,1.592h0s.756,3.374,5.674,5.488c0,0,.967,1.1,1.26,1.111l-.478-2.028a3.431,3.431,0,0,1-2.52-.3s2.457.361,2.461,0c0-.075-.3-1.063-.3-1.063s-2.565.7-4.148-.439c0,0,2.87.824,4.037.063l-.538-1.469s-2.687.875-4.527-.352c0,0,3.031.758,4.387.042l-.732-1.368s-2.628.8-4.16-.23c0,0,3.583.52,3.971-.072a7.421,7.421,0,0,0-1.1-1.442s-1.9.531-2.735-.146c0,0,2.434.093,2.49-.164a8.05,8.05,0,0,0-2.458-1.621,5.852,5.852,0,0,1,2.655,1.391,3.222,3.222,0,0,0-.555-1.753s1.087.358.9,2.09a7.438,7.438,0,0,1,1.078,1.32,7.021,7.021,0,0,0,.155-2.777s.9,1.087.051,3.132l.764,1.359a9.91,9.91,0,0,0,.517-3.183s.743,1.248-.352,3.541l.552,1.43a11.96,11.96,0,0,0,.785-2.986,4.721,4.721,0,0,1-.645,3.407l.257,1s.513-1.347.627-1.747.23-.4.23-.4a4.891,4.891,0,0,1-.744,2.568A11.861,11.861,0,0,0,615.419,250.728Z" transform="translate(-454.657 -184.417)" fill="#85bb65" opacity="0.1"/>
    <path id="Path_598" data-name="Path 598" d="M520.066,282.992s-9.113-6.817-12.371.567a1.943,1.943,0,0,0-.281,2.263s.34-.481,1.194.316a5.231,5.231,0,0,0,1,.729,2.562,2.562,0,0,0,1.6.3h0s3.392.654,7.3-3.022c0,0,1.394-.448,1.526-.711l-2.057-.361a3.45,3.45,0,0,1-1.275,2.192s1.311-2.108.97-2.26c-.069-.033-1.1-.149-1.1-.149s-.382,2.634-2.054,3.628c0,0,1.9-2.3,1.666-3.676l-1.562-.084s-.266,2.8-2.129,4.01c0,0,1.9-2.475,1.792-4l-1.547.125s-.314,2.726-1.869,3.718c0,0,1.908-3.082,1.517-3.667a7.507,7.507,0,0,0-1.762.433s-.272,1.953-1.227,2.449c0,0,1.06-2.195.845-2.347a8.027,8.027,0,0,0-2.467,1.6,5.832,5.832,0,0,1,2.335-1.875,3.216,3.216,0,0,0-1.827-.191s.758-.854,2.257.015a7.541,7.541,0,0,1,1.642-.463,6.988,6.988,0,0,0-2.484-1.251s1.356-.388,2.893,1.194l1.55-.158a10.228,10.228,0,0,0-2.711-1.744s1.442-.182,3.105,1.735l1.529.069a11.924,11.924,0,0,0-2.425-1.917,4.721,4.721,0,0,1,2.864,1.95l1.018.164s-1.03-1.009-1.353-1.272-.278-.373-.278-.373a4.906,4.906,0,0,1,2.057,1.708A12.072,12.072,0,0,0,520.066,282.992Z" transform="translate(-384.155 -212.907)" fill="#85bb65" opacity="0.1"/>
    <path id="Path_599" data-name="Path 599" d="M621.676,70.879s-9.113-6.82-12.371.567a1.943,1.943,0,0,0-.281,2.263s.34-.481,1.194.317a5.312,5.312,0,0,0,1,.726,2.559,2.559,0,0,0,1.6.3h0s3.392.654,7.3-3.025c0,0,1.394-.445,1.523-.711l-2.057-.355a3.435,3.435,0,0,1-1.275,2.192s1.314-2.108.973-2.26c-.069-.033-1.1-.149-1.1-.149s-.394,2.64-2.066,3.628c0,0,1.9-2.3,1.666-3.676l-1.562-.084s-.269,2.8-2.129,4.007c0,0,1.9-2.475,1.792-4l-1.544.125s-.317,2.729-1.872,3.721c0,0,1.911-3.082,1.52-3.667a7.507,7.507,0,0,0-1.762.433s-.272,1.953-1.227,2.449c0,0,1.06-2.195.845-2.35a8.057,8.057,0,0,0-2.466,1.607,5.805,5.805,0,0,1,2.335-1.875,3.2,3.2,0,0,0-1.831-.191s.761-.854,2.26.015a7.376,7.376,0,0,1,1.642-.463,7.026,7.026,0,0,0-2.484-1.254s1.353-.385,2.89,1.194l1.55-.158a10.238,10.238,0,0,0-2.711-1.747s1.442-.179,3.108,1.738l1.529.066a11.8,11.8,0,0,0-2.428-1.914,4.724,4.724,0,0,1,2.867,1.95l1.015.164s-1.033-1-1.356-1.254-.278-.37-.278-.37a4.9,4.9,0,0,1,2.057,1.708A12.891,12.891,0,0,0,621.676,70.879Z" transform="translate(-455.424 -64.131)" fill="#85bb65" opacity="0.1"/>
    <path id="Path_600" data-name="Path 600" d="M740.368,88.858s-3.643-10.783-10.514-6.545a1.963,1.963,0,0,0-1.514,1.705s.552-.2.8.932a5.38,5.38,0,0,0,.409,1.168,2.586,2.586,0,0,0,1.147,1.162h0s2.425,2.464,7.728,1.648c0,0,1.4.424,1.657.278l-1.493-1.466a3.435,3.435,0,0,1-2.293,1.081s2.278-.991,2.09-1.311c-.039-.063-.818-.741-.818-.741s-1.809,1.95-3.75,1.822c0,0,2.87-.818,3.455-2.09l-1.236-.953s-1.81,2.156-4.028,2.09c0,0,2.986-.959,3.742-2.284l-1.344-.773s-1.792,2.069-3.649,2c0,0,3.321-1.454,3.329-2.159a7.468,7.468,0,0,0-1.7-.642S731.054,85.236,730,85.1c0,0,2.114-1.209,2.025-1.457a8.012,8.012,0,0,0-2.941-.075,5.82,5.82,0,0,1,2.986-.224,3.221,3.221,0,0,0-1.4-1.194s1.111-.272,1.854,1.293a7.52,7.52,0,0,1,1.612.549,7.019,7.019,0,0,0-1.335-2.44s1.335.451,1.7,2.634l1.368.747a10.078,10.078,0,0,0-1.245-2.986s1.293.669,1.574,3.192l1.224.923a11.874,11.874,0,0,0-.914-2.956,4.727,4.727,0,0,1,1.254,3.234l.744.711s-.275-1.415-.388-1.816-.021-.427-.021-.427a4.925,4.925,0,0,1,.726,2.574A11.9,11.9,0,0,0,740.368,88.858Z" transform="translate(-539.292 -73.471)" fill="#85bb65" opacity="0.1"/>
    <path id="Path_601" data-name="Path 601" d="M664.484,108.161s-11.317-1.26-10.383,6.769a1.938,1.938,0,0,0,.9,2.09s.051-.6,1.194-.328a5.5,5.5,0,0,0,1.23.122,2.568,2.568,0,0,0,1.538-.546h0s3.258-1.156,4.778-6.307c0,0,.973-1.09.953-1.386l-1.956.723a3.33,3.33,0,0,1,0,2.535s.063-2.481-.3-2.443c-.075,0-1.018.43-1.018.43s1,2.463.066,4.18c0,0,.472-2.95-.427-4.013l-1.389.717s1.194,2.553.194,4.536c0,0,.388-3.1-.487-4.357l-1.269.9s1.111,2.511.272,4.157c0,0,.087-3.625-.549-3.933a7.77,7.77,0,0,0-1.3,1.266s.756,1.821.185,2.732c0,0-.2-2.428-.463-2.452a8.03,8.03,0,0,0-1.314,2.634,5.814,5.814,0,0,1,1.063-2.8,3.213,3.213,0,0,0-1.672.761s.221-1.12,1.953-1.132c0,0,.941-1.168,1.194-1.23a7.02,7.02,0,0,0-2.777.179s.97-1.021,3.1-.427l1.257-.923a9.684,9.684,0,0,0-3.234-.161s1.153-.9,3.559-.075l1.353-.72a11.89,11.89,0,0,0-3.064-.421,4.69,4.69,0,0,1,3.458.23l.961-.373s-1.4-.349-1.813-.415-.427-.179-.427-.179a4.912,4.912,0,0,1,2.64.43A12.214,12.214,0,0,0,664.484,108.161Z" transform="translate(-487.183 -92.243)" fill="#85bb65" opacity="0.1"/>
    <path id="Path_602" data-name="Path 602" d="M996.1,402.331s-11.311-1.26-10.377,6.76a1.938,1.938,0,0,0,.9,2.09s.051-.6,1.194-.331a5.165,5.165,0,0,0,1.23.122,2.547,2.547,0,0,0,1.538-.546h0s3.258-1.156,4.763-6.3c0,0,.973-1.093.953-1.386l-1.956.72a3.338,3.338,0,0,1,0,2.538s.063-2.484-.3-2.443c-.075,0-1.018.427-1.018.427s1,2.464.066,4.181c0,0,.472-2.947-.427-4.013l-1.388.72s1.194,2.553.2,4.536c0,0,.385-3.1-.49-4.36l-1.269.9s1.111,2.511.272,4.154c0,0,.087-3.625-.549-3.93a7.889,7.889,0,0,0-1.3,1.266s.759,1.821.185,2.732c0,0-.2-2.428-.463-2.452a8.031,8.031,0,0,0-1.314,2.634,5.813,5.813,0,0,1,1.063-2.8,3.187,3.187,0,0,0-1.672.761s.221-1.123,1.953-1.135c0,0,.944-1.168,1.194-1.227a7,7,0,0,0-2.777.176s.971-1.018,3.106-.424l1.254-.923a9.978,9.978,0,0,0-3.222-.131s1.153-.9,3.559-.078l1.353-.717a11.89,11.89,0,0,0-3.064-.421,4.69,4.69,0,0,1,3.458.23l.961-.376s-1.4-.349-1.812-.412-.427-.179-.427-.179a4.895,4.895,0,0,1,2.64.427A11.694,11.694,0,0,0,996.1,402.331Z" transform="translate(-719.779 -298.572)" fill="#85bb65" opacity="0.1"/>
    <path id="Path_603" data-name="Path 603" d="M1054.008,437.712s-11.311-1.257-10.376,6.761a1.943,1.943,0,0,0,.9,2.09s.051-.6,1.194-.328a5.271,5.271,0,0,0,1.227.119,2.58,2.58,0,0,0,1.532-.544h0s3.255-1.156,4.76-6.307c0,0,.976-1.09.953-1.386l-1.956.72a3.34,3.34,0,0,1,0,2.538s.063-2.481-.3-2.443c-.075,0-1.018.427-1.018.427s1,2.464.066,4.181c0,0,.472-2.947-.427-4.01l-1.388.717s1.195,2.553.2,4.536c0,0,.385-3.1-.49-4.357l-1.269.9s1.111,2.511.275,4.157c0,0,.083-3.628-.553-3.933a7.891,7.891,0,0,0-1.3,1.266s.759,1.822.185,2.732c0,0-.2-2.428-.463-2.452a7.985,7.985,0,0,0-1.311,2.634,5.833,5.833,0,0,1,1.06-2.8,3.213,3.213,0,0,0-1.672.761s.224-1.123,1.956-1.132c0,0,.941-1.168,1.194-1.23a7.019,7.019,0,0,0-2.777.179s.97-1.021,3.105-.427l1.254-.923a9.979,9.979,0,0,0-3.222-.131s1.153-.9,3.56-.075l1.353-.72a11.888,11.888,0,0,0-3.064-.421,4.69,4.69,0,0,1,3.458.23l.961-.373s-1.4-.349-1.81-.415-.43-.179-.43-.179a4.911,4.911,0,0,1,2.64.43A11.809,11.809,0,0,0,1054.008,437.712Z" transform="translate(-760.397 -323.388)" fill="#85bb65" opacity="0.1"/>
    <path id="Path_604" data-name="Path 604" d="M919.616,133.132s-9.113-6.817-12.371.567a1.943,1.943,0,0,0-.281,2.263s.34-.481,1.194.317a5.229,5.229,0,0,0,1,.729,2.565,2.565,0,0,0,1.6.3h0s3.392.654,7.3-3.022c0,0,1.392-.448,1.523-.711l-2.052-.37a3.45,3.45,0,0,1-1.275,2.192s1.311-2.108.971-2.26c-.069-.033-1.093-.149-1.093-.149s-.385,2.634-2.057,3.628c0,0,1.9-2.3,1.666-3.676l-1.562-.084s-.266,2.8-2.129,4.01c0,0,1.905-2.475,1.792-4l-1.547.125s-.3,2.726-1.869,3.718c0,0,1.911-3.082,1.517-3.667a7.51,7.51,0,0,0-1.762.433s-.269,1.953-1.224,2.449c0,0,1.057-2.195.842-2.347a8.027,8.027,0,0,0-2.466,1.6,5.83,5.83,0,0,1,2.335-1.875,3.216,3.216,0,0,0-1.828-.191s.761-.854,2.26.015a7.506,7.506,0,0,1,1.639-.463,6.988,6.988,0,0,0-2.484-1.251s1.356-.388,2.894,1.194l1.55-.158a10.173,10.173,0,0,0-2.712-1.744s1.442-.182,3.106,1.735l1.532.069a11.974,11.974,0,0,0-2.428-1.917,4.713,4.713,0,0,1,2.864,1.95l1.018.164s-1.03-1.009-1.353-1.272-.275-.349-.275-.349a4.909,4.909,0,0,1,2.054,1.708A11.993,11.993,0,0,0,919.616,133.132Z" transform="translate(-664.397 -107.796)" fill="#85bb65" opacity="0.1"/>
    <path id="Path_605" data-name="Path 605" d="M945.808,286.223s-3.141-10.938-10.206-7.011a1.94,1.94,0,0,0-1.592,1.633s.561-.176.755.967a5.294,5.294,0,0,0,.358,1.194,2.566,2.566,0,0,0,1.093,1.218h0s2.311,2.568,7.644,1.995c0,0,1.38.484,1.642.352l-1.412-1.535a3.433,3.433,0,0,1-2.338.979s2.317-.9,2.138-1.215c-.036-.066-.782-.779-.782-.779s-1.893,1.869-3.828,1.651c0,0,2.905-.687,3.544-1.923l-1.194-1.009s-1.905,2.072-4.118,1.911c0,0,3.01-.827,3.84-2.114l-1.308-.833s-1.9,1.986-3.735,1.836c0,0,3.383-1.3,3.425-2.007a7.455,7.455,0,0,0-1.669-.717s-1.394,1.391-2.454,1.212c0,0,2.168-1.114,2.09-1.365a8.065,8.065,0,0,0-2.935-.209,5.825,5.825,0,0,1,2.986-.087,3.2,3.2,0,0,0-1.344-1.254s1.123-.224,1.792,1.374a7.45,7.45,0,0,1,1.586.621,6.982,6.982,0,0,0-1.224-2.5s1.314.508,1.58,2.705l1.332.809a9.934,9.934,0,0,0-1.111-3.028s1.26.726,1.43,3.258l1.194.977a11.843,11.843,0,0,0-.779-2.986,4.718,4.718,0,0,1,1.108,3.285l.711.747s-.209-1.427-.3-1.833,0-.463,0-.463a4.894,4.894,0,0,1,.612,2.6A11.849,11.849,0,0,0,945.808,286.223Z" transform="translate(-683.547 -211.67)" fill="#85bb65" opacity="0.1"/>
    <path id="Path_606" data-name="Path 606" d="M708.891,373.859s-6.1-9.609-11.765-3.858a1.931,1.931,0,0,0-1.069,2.016s.493-.328,1,.717a5.108,5.108,0,0,0,.675,1.033,2.55,2.55,0,0,0,1.389.86h0s2.941,1.815,7.9-.239c0,0,1.46.078,1.675-.122L706.9,373.19a3.433,3.433,0,0,1-1.971,1.6s1.977-1.493,1.711-1.768c-.051-.054-.97-.526-.97-.526s-1.293,2.323-3.21,2.661c0,0,2.595-1.478,2.864-2.846l-1.43-.63s-1.245,2.523-3.413,2.986c0,0,2.658-1.639,3.091-3.109l-1.493-.43s-1.26,2.44-3.067,2.813c0,0,2.879-2.2,2.72-2.891a7.416,7.416,0,0,0-1.792-.218s-.947,1.729-2.016,1.854c0,0,1.768-1.678,1.621-1.9a8.046,8.046,0,0,0-2.876.627,5.811,5.811,0,0,1,2.849-.926,3.2,3.2,0,0,0-1.639-.827s1.012-.529,2.09.815a7.378,7.378,0,0,1,1.7.149,6.873,6.873,0,0,0-1.878-2.051s1.4.119,2.275,2.153l1.508.4a9.982,9.982,0,0,0-1.917-2.592s1.412.34,2.287,2.726l1.409.6a11.9,11.9,0,0,0-1.592-2.652,4.7,4.7,0,0,1,1.986,2.84l.9.517s-.6-1.311-.809-1.672-.128-.445-.128-.445a4.9,4.9,0,0,1,1.317,2.326A12.142,12.142,0,0,0,708.891,373.859Z" transform="translate(-516.63 -274.66)" fill="#85bb65" opacity="0.1"/>
    <path id="Path_607" data-name="Path 607" d="M843.322,208.872s-5.8-9.791-11.646-4.219a1.942,1.942,0,0,0-1.129,1.983s.5-.317.976.744a5.155,5.155,0,0,0,.642,1.057,2.536,2.536,0,0,0,1.362.9h0s2.882,1.905,7.9,0c0,0,1.457.122,1.678-.072l-1.753-1.129a3.434,3.434,0,0,1-2.019,1.535s2.021-1.442,1.768-1.714c-.054-.057-.956-.558-.956-.558s-1.365,2.284-3.285,2.562c0,0,2.64-1.4,2.947-2.753l-1.409-.663s-1.323,2.487-3.506,2.885c0,0,2.708-1.556,3.186-3.01l-1.475-.478s-1.338,2.389-3.153,2.717c0,0,2.944-2.114,2.807-2.8a7.375,7.375,0,0,0-1.792-.275s-1,1.7-2.072,1.792c0,0,1.819-1.618,1.681-1.845a8.038,8.038,0,0,0-2.893.537,5.829,5.829,0,0,1,2.876-.836,3.211,3.211,0,0,0-1.616-.878s1.03-.5,2.09.878a7.563,7.563,0,0,1,1.693.2,7.142,7.142,0,0,0-1.812-2.108s1.4.161,2.207,2.222l1.493.448a9.925,9.925,0,0,0-1.836-2.652s1.4.385,2.2,2.795l1.388.648a12,12,0,0,0-1.493-2.687,4.723,4.723,0,0,1,1.9,2.9l.875.543s-.561-1.329-.758-1.7-.113-.448-.113-.448a4.907,4.907,0,0,1,1.245,2.365A11.563,11.563,0,0,0,843.322,208.872Z" transform="translate(-610.967 -158.769)" fill="#85bb65"/>
    <path id="Path_608" data-name="Path 608" d="M727.848,268.44s.3-11.377-7.606-9.773a1.946,1.946,0,0,0-2.013,1.078s.6,0,.43,1.15a5.249,5.249,0,0,0-.018,1.236,2.553,2.553,0,0,0,.672,1.493h0s1.424,3.147,6.683,4.216c0,0,1.168.881,1.46.833l-.9-1.887a3.447,3.447,0,0,1-2.526.224s2.478-.146,2.41-.511c0-.075-.514-.982-.514-.982s-2.371,1.209-4.148.415c0,0,2.986.224,3.963-.758l-.833-1.323s-2.443,1.4-4.5.573c0,0,3.12.125,4.3-.851l-.994-1.194s-2.41,1.32-4.118.621c0,0,3.619-.218,3.882-.878a7.751,7.751,0,0,0-1.374-1.194s-1.75.9-2.706.412c0,0,2.389-.4,2.4-.666a8.014,8.014,0,0,0-2.735-1.087,5.814,5.814,0,0,1,2.882.824,3.211,3.211,0,0,0-.9-1.6s1.138.128,1.293,1.851a7.421,7.421,0,0,1,1.326,1.075,6.985,6.985,0,0,0-.412-2.75s1.1.881.687,3.055l1.024,1.177a10,10,0,0,0-.14-3.222s.979,1.072.376,3.538l.827,1.287a11.9,11.9,0,0,0,.164-3.088,4.738,4.738,0,0,1,.06,3.467l.454.926s.23-1.424.26-1.839.143-.442.143-.442a4.9,4.9,0,0,1-.206,2.667A11.38,11.38,0,0,0,727.848,268.44Z" transform="translate(-532.201 -197.748)" fill="#85bb65"/>
    <ellipse id="Ellipse_251" data-name="Ellipse 251" cx="8.041" cy="1.359" rx="8.041" ry="1.359" transform="translate(200.673 212.536)" fill="#85bb65" opacity="0.1"/>
    <ellipse id="Ellipse_252" data-name="Ellipse 252" cx="8.041" cy="1.359" rx="8.041" ry="1.359" transform="translate(171.359 233.164)" fill="#85bb65" opacity="0.1"/>
    <ellipse id="Ellipse_253" data-name="Ellipse 253" cx="8.041" cy="1.359" rx="8.041" ry="1.359" transform="translate(19.768 222.596)" fill="#85bb65" opacity="0.1"/>
    <ellipse id="Ellipse_254" data-name="Ellipse 254" cx="8.041" cy="1.359" rx="8.041" ry="1.359" transform="translate(232.352 231.805)" fill="#85bb65" opacity="0.1"/>
    <path id="Path_609" data-name="Path 609" d="M918.911,754.01a3.467,3.467,0,0,0,1.144-1.726,1.534,1.534,0,0,0-.8-1.759,2.255,2.255,0,0,0-2.117.741,2.837,2.837,0,0,1-2.054.994,3.136,3.136,0,0,0,.968-2.929,1.231,1.231,0,0,0-.269-.6c-.409-.436-1.147-.248-1.636.1-1.553,1.093-1.986,3.2-1.995,5.1a9.568,9.568,0,0,1-.027-2.09,2.146,2.146,0,0,0-.791-1.857,2.364,2.364,0,0,0-1.195-.3,2.494,2.494,0,0,0-1.953.555,1.924,1.924,0,0,0,.075,2.389,7.715,7.715,0,0,0,2.021,1.618,4.52,4.52,0,0,1,1.445,1.377,1.406,1.406,0,0,1,.1.245h4.378A12.08,12.08,0,0,0,918.911,754.01Z" transform="translate(-665.167 -541.409)" fill="#85bb65"/>
    <path id="Path_610" data-name="Path 610" d="M170.29,778.049s4.584-.14,5.972-1.126,7.056-2.159,7.4-.579,6.892,7.85,1.714,7.892-12.031-.806-13.41-1.648S170.29,778.049,170.29,778.049Z" transform="translate(-147.879 -560.41)" fill="#a8a8a8"/>
    <path id="Path_611" data-name="Path 611" d="M185.462,789.494c-5.178.042-12.031-.806-13.41-1.648-1.051-.639-1.469-2.935-1.609-4h-.152s.3,3.7,1.669,4.539,8.233,1.69,13.41,1.648c1.493,0,2.01-.544,1.983-1.332C187.143,789.186,186.573,789.485,185.462,789.494Z" transform="translate(-147.879 -566.217)" opacity="0.2"/>
  </g>
</svg>
