<svg xmlns="http://www.w3.org/2000/svg" width="8" height="9.214" viewBox="0 0 8 9.214">
  <path id="Icon_metro-fire" data-name="Icon metro-fire" d="M6.953,11.142a2.347,2.347,0,0,1,.185-2.7,4.3,4.3,0,0,0,.65-1.5,1.766,1.766,0,0,1,.244,1.354,3.418,3.418,0,0,0,.745-2.56,4.42,4.42,0,0,1,1.381,5.408c4.97-2.812,1.236-7.02.586-7.494a1.542,1.542,0,0,1-.18,1.666C9.824,2.5,7.991,1.928,7.991,1.928c.217,1.449-.785,3.034-1.752,4.218a3.132,3.132,0,0,0-.374-1.529C5.8,5.666,5,6.522,4.778,7.573,4.484,9,5,10.04,6.953,11.142Z" transform="translate(-4.701 -1.928)" fill="#f84747"/>
</svg>
