

<svg xmlns="http://www.w3.org/2000/svg" width="375" height="280.766" viewBox="0 0 375 253.766">
<g id="Group_951" data-name="Group 951" transform="translate(90.127 0)">
  <path id="Path_524" data-name="Path 524" d="M270.375,88.3c-19.326-.669-37.732-6.91-55.308-13.736s-34.985-14.387-53.848-18c-12.132-2.326-26.009-2.658-35.782,3.84-9.409,6.271-12.449,17.065-14.082,27.09-1.23,7.543-1.953,15.483,1.415,22.545,2.341,4.9,6.492,9.024,9.364,13.721,9.994,16.34,2.929,36.49-7.9,52.444-5.076,7.483-10.974,14.632-14.895,22.59s-5.733,17.107-2.3,25.247c3.4,8.062,11.5,14.106,20.275,18.361,17.824,8.645,38.819,11.117,59.306,12.521,45.337,3.1,90.914,1.759,136.371.412,16.823-.5,33.719-1,50.267-3.6,9.191-1.445,18.678-3.739,25.352-9.275,8.468-7.026,10.568-18.923,4.891-27.732-9.52-14.781-35.833-18.451-42.495-34.31-3.661-8.731.1-18.454,5.423-26.549,11.419-17.37,30.556-32.608,31.563-52.459.693-13.634-8.507-27.29-22.733-33.743-14.909-6.763-35.588-5.912-46.583,5.282C307.345,84.457,287.44,88.891,270.375,88.3Z" transform="translate(-175.226 -10.033)" fill="#85bb65" opacity="0.1"/>
    <path id="Path_612" data-name="Path 612" d="M530.772,245.461q0,2.163-.14,4.289a64.969,64.969,0,0,1-6.088,23.587c-.027.063-.059.122-.086.181-.163.343-.33.687-.5,1.026a64.188,64.188,0,0,1-3.457,6.1A65.288,65.288,0,0,1,466.918,310.8l.646,37.167,8.429-4.438,1.505,2.861-9.87,5.2,1.207,69.029.013.922-6.517.547.013-.023L464.4,310.8a65.158,65.158,0,0,1-46.1-20.057c-.411-.425-.818-.863-1.216-1.3-.018-.018-.032-.036-.045-.05a65.427,65.427,0,0,1-11.9-18.421c.063.072.131.14.194.212a65.369,65.369,0,0,1,30.994-84.232c.226-.113.457-.221.683-.334a65.419,65.419,0,0,1,84.752,25.729c.4.669.782,1.351,1.153,2.038A65.013,65.013,0,0,1,530.772,245.461Z" transform="translate(-393.042 -175.618)" fill="#519e23"/>
    <circle id="Ellipse_256" data-name="Ellipse 256" cx="19.464" cy="19.464" r="19.464" transform="translate(70.149 207.689)" fill="#2f2e41"/>
    <rect id="Rectangle_384" data-name="Rectangle 384" width="17.437" height="5.913" transform="translate(95.18 240.532)" fill="#2f2e41"/>
    <ellipse id="Ellipse_257" data-name="Ellipse 257" cx="1.848" cy="4.928" rx="1.848" ry="4.928" transform="translate(110.892 236.59)" fill="#2f2e41"/>
    <rect id="Rectangle_385" data-name="Rectangle 385" width="17.437" height="5.913" transform="translate(91.112 240.08)" fill="#2f2e41"/>
    <ellipse id="Ellipse_258" data-name="Ellipse 258" cx="1.848" cy="4.928" rx="1.848" ry="4.928" transform="translate(106.825 236.138)" fill="#2f2e41"/>
    <path id="Path_613" data-name="Path 613" d="M540.7,612.982c-1.571-7.038,3.452-14.15,11.221-15.885s15.341,2.565,16.912,9.6-3.577,9.634-11.346,11.369S542.274,620.021,540.7,612.982Z" transform="translate(-469.97 -403.93)" fill="#e8505b"/>
    <path id="Path_614" data-name="Path 614" d="M593.685,662.139a4.859,4.859,0,0,1-4.673-3.219.452.452,0,0,1,.857-.288,4.077,4.077,0,0,0,5.222,2.374,4.342,4.342,0,0,0,2.518-2.146,3.721,3.721,0,0,0,.219-2.864.452.452,0,1,1,.857-.288,4.617,4.617,0,0,1-.268,3.556,5.254,5.254,0,0,1-3.042,2.6A5.365,5.365,0,0,1,593.685,662.139Z" transform="translate(-496.591 -436.095)" fill="#fff"/>
    <path id="Path_615" data-name="Path 615" d="M608.779,674.337a4.326,4.326,0,1,1-7.7,3.94h0l0-.008c-1.086-2.128.415-3.449,2.543-4.535S607.693,672.208,608.779,674.337Z" transform="translate(-503.015 -445.647)" fill="#efb7b9"/>
    <path id="Path_616" data-name="Path 616" d="M764.3,715.123H391.255c-.541,0-.979-.2-.979-.452s.438-.452.979-.452H764.3c.541,0,.979.2.979.452S764.838,715.123,764.3,715.123Z" transform="translate(-480.403 -468.331)" fill="#707070"/>
    <ellipse id="Ellipse_259" data-name="Ellipse 259" cx="3.39" cy="10.798" rx="3.39" ry="10.798" transform="matrix(0.968, -0.25, 0.25, 0.968, 76.585, 232.855)" fill="#2f2e41"/>
    <path id="Path_617" data-name="Path 617" d="M636.1,612.443H628.7a.349.349,0,0,1-.235-.608l6.734-6.1h-6.222a.349.349,0,1,1,0-.7H636.1a.349.349,0,0,1,.234.608l-6.734,6.1h6.5a.349.349,0,1,1,0,.7Z" transform="translate(-518.164 -408.493)" fill="#519e23"/>
    <path id="Path_618" data-name="Path 618" d="M656.969,588.489h-7.405a.349.349,0,0,1-.235-.608l6.734-6.1h-6.222a.349.349,0,1,1,0-.7h7.128a.349.349,0,0,1,.234.608l-6.734,6.1h6.5a.349.349,0,0,1,0,.7Z" transform="translate(-529.599 -395.364)" fill="#519e23"/>
    <path id="Path_619" data-name="Path 619" d="M647.7,562.215H640.29a.349.349,0,0,1-.234-.608l6.734-6.1h-6.222a.349.349,0,0,1,0-.7H647.7a.349.349,0,0,1,.235.608l-6.734,6.1h6.5a.349.349,0,0,1,0,.7Z" transform="translate(-524.517 -380.965)" fill="#519e23"/>
    <path id="Path_620" data-name="Path 620" d="M760.184,341.835l5.783-4.625c-4.492-.5-6.338,1.954-7.093,3.893-3.509-1.457-7.33.453-7.33.453l11.57,4.2A8.754,8.754,0,0,0,760.184,341.835Z" transform="translate(-585.682 -261.672)" fill="#3f3d56"/>
    <path id="Path_621" data-name="Path 621" d="M393.184,174.835l5.783-4.625c-4.492-.5-6.338,1.954-7.093,3.893-3.509-1.457-7.33.453-7.33.453l11.57,4.2A8.755,8.755,0,0,0,393.184,174.835Z" transform="translate(-384.543 -170.145)" fill="#3f3d56"/>
    <path id="Path_622" data-name="Path 622" d="M792.184,209.835l5.783-4.625c-4.492-.5-6.338,1.954-7.093,3.893-3.509-1.457-7.33.453-7.33.453l11.57,4.2A8.755,8.755,0,0,0,792.184,209.835Z" transform="translate(-603.22 -189.327)" fill="#3f3d56"/>
  </g>
</svg>

